# xmcd
#
# Track frame offsets:
#	150
#	11254
#	21736
#	34188
#	48343
#	57695
#
# Disc length: 938 seconds
#
# Revision: 1
# Processed by: cddbd v1.5.2PL0 Copyright (c) Steve Scherf et al.
# Submitted via: audiograbber 1.83.01
#
DISCID=4d03a806
DTITLE=Sanne Slotemaker - Duinrust
DYEAR=1900
DGENRE=pop
TTITLE0=Sanne Slotemaker - 1. Duinrust
TTITLE1=Sanne Slotemaker - 2. Hoereloper
TTITLE2=Sanne Slotemaker - 3. Iedereen kijkt naar mij
TTITLE3=Sanne Slotemaker - 4. Stilte
TTITLE4=Sanne Slotemaker - 5. Dieren
TTITLE5=Sanne Slotemaker - 6. Na dato
EXTD=
EXTT0=
EXTT1=
EXTT2=
EXTT3=
EXTT4=
EXTT5=
PLAYORDER=
